<svg xmlns="http://www.w3.org/2000/svg" width="30" height="30" viewBox="0 0 30 30">
    <g fill="none" fill-rule="evenodd">
        <g>
            <g>
                <g transform="translate(-1286 -223) translate(257 223) translate(1029)">
                    <circle cx="15" cy="15" r="15" fill="#008CFF"/>
                    <g fill="#FFF" fill-rule="nonzero">
                        <path d="M5.328 10.914l5.586-5.586c.702-.703.702-1.841 0-2.544L9.216 1.086c-.703-.702-1.841-.702-2.544 0L1.086 6.672c-.338.337-.528.795-.528 1.272v3.498h3.498c.477 0 .935-.19 1.272-.528zm-3.6-3c0-.157.063-.308.174-.42l5.592-5.592c.234-.233.612-.233.846 0L10.038 3.6c.233.234.233.612 0 .846l-5.562 5.622c-.112.11-.263.173-.42.174H1.758l-.03-2.328z" transform="translate(9 9)"/>
                    </g>
                </g>
            </g>
        </g>
    </g>
</svg>
